# xmcd
#
# Track frame offsets:
# 150
# 48182
# 110753
# 117180
# 122335
# 172661
# 199722
# 239000
# 264685
# 267679
# 294875
# 339508
# 353832
# 376119
#
# Disc length: 5126 seconds
#
#
# Revision: 0
# Processed by: cddbd v1.5.2PL0 Copyright (c) Steve Scherf et al.
# Submitted via: FreeRIP 2.96 
#
DISCID=ca14040e
DTITLE=Rainer Schmitz - Was geschah mit Schillers Schädel - Lust und Leid
DYEAR=2008
DGENRE=Speech
TTITLE0=01 Bett, das zu Schanden gerittene I
TTITLE1=02 Bett, das zu Schanden gerittene II
TTITLE2=03 Beischlaf
TTITLE3=04 Bordell
TTITLE4=05 Männerfresserin, geniale
TTITLE5=06 Weiberfresserin, geniale
TTITLE6=07 Kommunikationsbedürfnis
TTITLE7=08 Potenz, sexuelle
TTITLE8=09 Samenverstopfung
TTITLE9=10 Syphilis
TTITLE10=11 Alkohol
TTITLE11=12 Cognac
TTITLE12=13 Daiquiri
TTITLE13=14 Champagner
EXTD=
EXTT0=
EXTT1=
EXTT2=
EXTT3=
EXTT4=
EXTT5=
EXTT6=
EXTT7=
EXTT8=
EXTT9=
EXTT10=
EXTT11=
EXTT12=
EXTT13=
PLAYORDER=
